<svg xmlns="http://www.w3.org/2000/svg" viewBox="0 0 32 32" fill="none">
  <circle cx="16" cy="16" r="16" fill="#F7931A"/>
  <path d="M22.1 13.5c.3-2.1-1.3-3.2-3.4-3.9l.7-2.8-1.7-.4-.7 2.7c-.4-.1-.9-.2-1.4-.3l.7-2.8-1.7-.4-.7 2.8c-.4-.1-.7-.2-1-.2l-2.4-.6-.5 1.8s1.3.3 1.2.3c.7.2.8.6.8 1l-.8 3.2c0 0 .1 0 .1 0l-.1 0-1.1 4.5c-.1.2-.3.5-.8.4 0 0-1.2-.3-1.2-.3l-.8 2 2.2.6c.4.1.8.2 1.2.3l-.7 2.8 1.7.4.7-2.8c.5.1.9.2 1.4.3l-.7 2.8 1.7.4.7-2.8c3 .6 5.2.3 6.2-2.4.7-2.1-.1-3.3-1.6-4.1 1.1-.3 2-1 2.2-2.6zm-3.9 5.5c-.5 2.1-4.1 1-5.3.7l.9-3.8c1.2.3 4.9.9 4.4 3.1zm.5-5.5c-.5 1.9-3.5.9-4.4.7l.8-3.4c1 .2 4.1.7 3.6 2.7z" fill="#fff"/>
</svg>
