<svg xmlns="http://www.w3.org/2000/svg" viewBox="0 0 32 32" fill="none">
  <circle cx="16" cy="16" r="16" fill="#2775CA"/>
  <path d="M20.8 18.4c0-2.2-1.3-2.9-3.9-3.2-1.9-.3-2.2-.8-2.2-1.7s.7-1.5 2-1.5c1.1 0 1.7.4 2 1.3.1.2.3.3.5.3h1.1c.3 0 .5-.2.5-.5v-.1c-.3-1.3-1.2-2.3-2.7-2.6V9.1c0-.3-.2-.5-.5-.5h-1c-.3 0-.5.2-.5.5v1.3c-1.8.3-3 1.5-3 3.1 0 2.1 1.3 2.8 3.8 3.2 1.7.3 2.3.7 2.3 1.8 0 1-.9 1.8-2.2 1.8-1.7 0-2.3-.7-2.5-1.6-.1-.2-.3-.4-.5-.4h-1.2c-.3 0-.5.2-.5.5v.1c.3 1.5 1.3 2.5 3.1 2.8v1.4c0 .3.2.5.5.5h1c.3 0 .5-.2.5-.5v-1.4c1.8-.3 3-1.6 3-3.2z" fill="#fff"/>
  <path d="M13.1 24.8c-4.6-1.6-7-6.7-5.3-11.3.8-2.3 2.6-4.1 4.9-4.9.3-.1.4-.3.4-.6v-1c0-.3-.1-.5-.4-.5h-.1c-5.4 1.8-8.3 7.5-6.5 12.9 1.1 3.2 3.6 5.7 6.8 6.8.3.1.5 0 .6-.3v-1c-.1-.3-.2-.5-.4-.6v-.5zm5.8-18.6c-.3-.1-.5 0-.6.3v1c0 .3.2.5.4.6 4.6 1.6 7 6.7 5.3 11.3-.8 2.3-2.6 4.1-4.9 4.9-.3.1-.4.3-.4.6v1c0 .3.1.5.4.5h.1c5.4-1.8 8.3-7.5 6.5-12.9-1.1-3.3-3.7-5.8-6.8-6.8v-.5z" fill="#fff"/>
</svg>
